<?xml version="1.0" standalone="no"?>
<!DOCTYPE svg PUBLIC "-//W3C//DTD SVG 20010904//EN"
 "http://www.w3.org/TR/2001/REC-SVG-20010904/DTD/svg10.dtd">
<svg version="1.0" xmlns="http://www.w3.org/2000/svg"
 width="366.000000pt" height="366.000000pt" viewBox="0 0 366.000000 366.000000"
 preserveAspectRatio="xMidYMid meet">
<metadata>
Created by potrace 1.11, written by Peter Selinger 2001-2013
</metadata>
<g transform="translate(0.000000,366.000000) scale(0.100000,-0.100000)"
fill="#000000" stroke="none">
<path d="M790 3025 c-9 -11 -11 -35 -6 -83 9 -92 33 -386 51 -627 8 -110 19
-246 25 -302 5 -57 7 -109 4 -117 -3 -8 4 -16 18 -20 33 -8 1871 -7 1883 2 6
4 11 36 12 72 2 36 7 112 13 170 5 58 19 236 30 395 12 160 25 335 30 389 6
64 5 106 -1 118 -9 17 -51 18 -1028 18 -900 0 -1020 -2 -1031 -15z"/>
<path d="M889 1823 c-5 -15 -9 -38 -7 -52 3 -26 5 -26 97 -29 61 -2 98 1 107
9 11 9 18 9 26 1 16 -16 111 -15 126 0 9 9 15 9 24 0 17 -17 113 -15 131 3 13
13 16 13 21 0 4 -11 21 -15 58 -15 71 0 80 8 76 61 l-3 44 -44 3 c-71 5 -91
-3 -92 -41 l-2 -32 -6 35 -6 35 -65 0 c-60 0 -65 -2 -71 -25 l-6 -25 -4 25
c-4 24 -7 25 -69 25 -62 0 -65 -1 -69 -25 l-4 -25 -6 25 c-7 24 -10 25 -104
28 l-97 3 -11 -28z"/>
<path d="M1571 1836 c-7 -8 -11 -32 -9 -53 l3 -38 58 -3 c32 -2 64 2 71 7 9 7
16 7 23 0 5 -5 37 -9 69 -7 l59 3 0 50 0 50 -60 3 c-45 2 -62 -1 -71 -13 -10
-14 -12 -14 -18 0 -7 20 -108 21 -125 1z"/>
<path d="M1867 1844 c-4 -4 -7 -27 -7 -50 0 -50 14 -58 91 -52 l44 3 0 50 0
50 -60 3 c-34 2 -64 0 -68 -4z"/>
<path d="M2017 1844 c-14 -15 -8 -92 9 -98 32 -12 114 -6 120 9 5 13 8 13 21
0 18 -18 114 -20 131 -3 9 9 15 9 24 0 15 -15 120 -16 135 -1 8 8 13 8 17 0 9
-14 123 -14 131 -1 5 8 11 8 20 0 7 -6 39 -10 72 -8 l58 3 -2 44 c-2 52 -13
61 -75 61 -36 0 -50 -5 -61 -20 l-14 -21 -6 21 c-4 17 -13 20 -60 20 -45 0
-59 -4 -70 -20 l-14 -21 -6 21 c-4 17 -13 20 -55 20 -69 0 -82 -7 -83 -44 l-2
-31 -6 35 -6 35 -65 0 -65 0 -6 -35 -6 -35 -4 35 -4 35 -60 3 c-34 2 -64 0
-68 -4z"/>
<path d="M870 1690 c-6 -12 -10 -35 -8 -53 l3 -32 114 -3 c132 -3 143 2 139
62 l-3 41 -117 3 c-110 2 -118 1 -128 -18z"/>
<path d="M1141 1696 c-7 -8 -11 -32 -9 -53 3 -37 4 -38 47 -41 68 -5 91 4 92
36 1 21 2 22 6 7 9 -36 24 -45 78 -45 63 0 78 14 73 67 l-3 38 -63 3 c-57 3
-63 1 -71 -20 l-8 -22 -12 22 c-10 18 -20 22 -65 22 -34 0 -58 -5 -65 -14z"/>
<path d="M1445 1687 c-4 -14 -5 -38 -3 -53 3 -27 7 -29 47 -32 25 -2 55 -1 68
3 22 5 24 10 21 53 l-3 47 -62 3 c-59 3 -63 2 -68 -21z"/>
<path d="M1600 1691 c-14 -26 -13 -64 2 -79 7 -7 35 -12 63 -12 28 0 56 5 63
12 9 9 15 9 24 0 16 -16 102 -15 129 1 17 10 23 10 26 0 3 -9 25 -13 63 -13
72 0 87 14 74 68 l-9 37 -62 3 -62 3 -9 -33 -9 -33 -7 33 c-8 32 -8 32 -67 32
-44 0 -61 -4 -65 -15 -4 -8 -10 -15 -15 -15 -5 0 -9 7 -9 15 0 12 -13 15 -60
15 -48 0 -61 -4 -70 -19z"/>
<path d="M2062 1658 l3 -53 44 -3 c73 -5 91 3 91 42 0 61 -6 66 -77 66 l-64 0
3 -52z"/>
<path d="M2217 1704 c-12 -12 -8 -79 5 -92 18 -18 113 -15 128 3 11 14 14 14
24 0 9 -12 26 -15 71 -13 59 3 60 3 63 35 6 58 -11 73 -79 73 -59 0 -60 0 -66
-32 l-7 -33 -6 30 c-5 29 -7 30 -65 33 -34 2 -64 0 -68 -4z"/>
<path d="M2527 1703 c-12 -11 -8 -78 5 -91 13 -13 202 -17 232 -6 18 7 21 40
6 78 -9 26 -10 26 -123 26 -63 0 -117 -3 -120 -7z"/>
<path d="M850 1561 c-5 -11 -10 -36 -10 -56 l0 -35 168 2 167 3 0 50 0 50
-157 3 c-147 2 -158 1 -168 -17z"/>
<path d="M1212 1571 c-7 -4 -14 -28 -15 -52 l-2 -44 70 0 70 0 3 44 c2 28 -1
47 -10 52 -17 11 -99 11 -116 0z"/>
<path d="M1360 1560 c-6 -12 -10 -35 -8 -53 3 -32 3 -32 67 -35 43 -2 67 1 72
9 6 10 11 10 22 0 10 -7 39 -11 79 -9 63 3 63 3 66 35 2 18 -2 42 -8 53 -10
18 -19 21 -68 18 -55 -3 -57 -4 -69 -38 -10 -31 -12 -32 -12 -9 -1 37 -19 49
-78 49 -42 0 -54 -4 -63 -20z"/>
<path d="M1681 1566 c-7 -8 -11 -32 -9 -53 l3 -38 68 -3 c46 -2 67 1 67 9 0 9
3 9 14 0 9 -7 40 -11 78 -9 l63 3 3 38 c5 54 -10 67 -75 67 -51 0 -55 -2 -68
-32 l-13 -33 -4 30 c-3 29 -5 30 -59 33 -40 2 -59 -1 -68 -12z"/>
<path d="M1991 1566 c-7 -8 -11 -32 -9 -53 l3 -38 63 -3 c36 -2 69 2 77 8 9 8
15 8 20 0 3 -5 35 -10 71 -10 74 0 83 9 68 69 -8 34 -12 36 -53 39 -70 5 -89
-3 -93 -41 l-4 -32 -10 35 c-10 34 -12 35 -65 38 -40 2 -59 -1 -68 -12z"/>
<path d="M2304 1566 c-3 -8 -4 -31 -2 -52 l3 -39 70 0 70 0 -3 40 c-2 22 -8
45 -14 52 -15 18 -117 17 -124 -1z"/>
<path d="M2459 1556 c-8 -16 -8 -34 -2 -53 l10 -28 164 0 164 0 3 26 c2 14 -2
37 -7 52 l-11 27 -155 0 c-154 0 -156 0 -166 -24z"/>
<path d="M831 1427 c-9 -22 -14 -68 -12 -94 1 -17 122 -18 139 -1 7 7 12 30
12 53 0 54 -13 65 -77 65 -47 0 -55 -3 -62 -23z"/>
<path d="M990 1431 c-5 -11 -10 -40 -10 -65 l0 -46 63 0 c36 0 68 5 75 12 7 7
12 30 12 53 0 54 -13 65 -77 65 -41 0 -54 -4 -63 -19z"/>
<path d="M1150 1430 c-6 -11 -10 -40 -8 -63 l3 -42 64 -3 c44 -2 67 1 72 10 7
10 11 10 21 0 18 -18 1018 -18 1036 0 10 10 14 10 21 0 5 -9 28 -12 72 -10
l64 3 3 34 c2 18 -2 46 -8 62 -11 27 -17 29 -64 29 -56 0 -69 -6 -81 -35 -7
-19 -8 -19 -14 5 l-7 25 -502 3 -502 2 -11 -27 -10 -27 -12 24 c-11 22 -20 25
-69 28 -49 3 -58 0 -68 -18z"/>
<path d="M2523 1443 c-8 -3 -13 -23 -13 -48 0 -72 3 -75 82 -75 l70 0 -4 56
c-3 33 -11 60 -19 65 -15 9 -95 11 -116 2z"/>
<path d="M2683 1443 c-17 -6 -17 -95 -1 -111 7 -7 40 -12 76 -12 l65 0 -6 55
c-3 30 -8 59 -12 65 -6 10 -99 13 -122 3z"/>
<path d="M1475 760 c-3 -5 1 -10 9 -10 9 0 16 5 16 10 0 6 -4 10 -9 10 -6 0
-13 -4 -16 -10z"/>
<path d="M1033 743 c20 -2 54 -2 75 0 20 2 3 4 -38 4 -41 0 -58 -2 -37 -4z"/>
</g>
</svg>
